<svg width="80" height="17" viewBox="0 0 80 17" fill="none" xmlns="http://www.w3.org/2000/svg">
<path d="M3.76172 17H1.04297C0.980469 17 0.949219 16.9609 0.949219 16.8828L0.996094 0.394531C0.996094 0.332031 1.02734 0.300781 1.08984 0.300781H5.94141C6.80859 0.300781 7.60547 0.511719 8.33203 0.933594C9.05859 1.35547 9.63672 1.92188 10.0664 2.63281C10.5039 3.34375 10.7227 4.14844 10.7227 5.04688C10.7227 5.63281 10.6328 6.16406 10.4531 6.64062C10.2734 7.11719 10.0625 7.51953 9.82031 7.84766C9.58594 8.17578 9.37109 8.41797 9.17578 8.57422C10.043 9.53516 10.4766 10.6641 10.4766 11.9609L10.5 16.8828C10.5 16.9609 10.4609 17 10.3828 17H7.66406C7.60156 17 7.57031 16.9766 7.57031 16.9297V11.9609C7.57031 11.3828 7.36719 10.8828 6.96094 10.4609C6.55469 10.0391 6.05469 9.82812 5.46094 9.82812H3.87891L3.85547 16.8828C3.85547 16.9609 3.82422 17 3.76172 17ZM5.94141 3.17188H3.87891V6.94531H5.94141C6.43359 6.94531 6.87109 6.76172 7.25391 6.39453C7.64453 6.02734 7.83984 5.57812 7.83984 5.04688C7.83984 4.53906 7.65234 4.10156 7.27734 3.73438C6.90234 3.35938 6.45703 3.17188 5.94141 3.17188Z" fill="#1E90FF"/>
<path d="M20.3789 17H12.6211C12.5586 17 12.5273 16.9609 12.5273 16.8828L12.5508 0.394531C12.5508 0.332031 12.582 0.300781 12.6445 0.300781H20.3555C20.418 0.300781 20.4492 0.339844 20.4492 0.417969V3.10156C20.4492 3.16406 20.418 3.19531 20.3555 3.19531H15.4336V6.94531H20.3555C20.418 6.94531 20.4492 6.97656 20.4492 7.03906L20.4727 9.75781C20.4727 9.82031 20.4414 9.85156 20.3789 9.85156H15.4336V14.0469H20.3789C20.4414 14.0469 20.4727 14.0859 20.4727 14.1641V16.9062C20.4727 16.9688 20.4414 17 20.3789 17ZM21.7969 16.8828L24.7734 0.394531C24.7891 0.332031 24.8281 0.300781 24.8906 0.300781H28.3711C28.4336 0.300781 28.4727 0.332031 28.4883 0.394531L31.3477 16.8828C31.3555 16.9609 31.3242 17 31.2539 17H28.5938C28.5156 17 28.4727 16.9609 28.4648 16.8828L28.207 15.125H24.9375L24.6797 16.8828C24.6719 16.9609 24.6328 17 24.5625 17H21.8906C21.8281 17 21.7969 16.9609 21.7969 16.8828ZM26.4961 5.82031L25.418 12.5586H27.7266L26.7422 5.82031L26.6016 4.92969L26.4961 5.82031ZM37.2656 16.9766L32.9648 17C32.8867 17 32.8477 16.9609 32.8477 16.8828L32.8945 0.394531C32.8945 0.332031 32.9258 0.300781 32.9883 0.300781L37.4766 0.277344C38.3672 0.253906 39.1719 0.457031 39.8906 0.886719C40.6172 1.31641 41.1953 1.89844 41.625 2.63281C42.0625 3.35938 42.2812 4.16406 42.2812 5.04688V11.9375C42.2812 12.8594 42.0586 13.7031 41.6133 14.4688C41.1602 15.2266 40.5586 15.832 39.8086 16.2852C39.0586 16.7305 38.2109 16.9609 37.2656 16.9766ZM37.4766 3.14844L35.8008 3.17188L35.7773 14.0469H37.2656C37.8594 14.0469 38.3594 13.8398 38.7656 13.4258C39.1719 13.0117 39.375 12.5156 39.375 11.9375V5.02344C39.375 4.51562 39.1875 4.07422 38.8125 3.69922C38.4375 3.31641 37.9922 3.13281 37.4766 3.14844ZM56.6133 17H53.8945C53.8164 17 53.7773 16.9609 53.7773 16.8828L53.8008 0.394531C53.8008 0.332031 53.832 0.300781 53.8945 0.300781H56.5898C56.6523 0.300781 56.6836 0.332031 56.6836 0.394531L56.707 16.8828C56.707 16.9609 56.6758 17 56.6133 17ZM61.6289 17H58.9102C58.8477 17 58.8164 16.9609 58.8164 16.8828L58.8633 0.394531C58.8633 0.332031 58.8945 0.300781 58.957 0.300781H61.8867C61.9492 0.300781 62.0039 0.332031 62.0508 0.394531L64.2422 3.55859L66.4219 0.394531C66.4688 0.332031 66.5273 0.300781 66.5977 0.300781H69.5391C69.6094 0.300781 69.6445 0.332031 69.6445 0.394531L69.6914 16.8828C69.6914 16.9609 69.6602 17 69.5977 17H66.8789C66.8164 17 66.7852 16.9609 66.7852 16.8828L66.7617 4.63672L64.2422 8.29297L61.7461 4.63672L61.7227 16.8828C61.7227 16.9609 61.6914 17 61.6289 17ZM79.5586 17H71.8008C71.7383 17 71.707 16.9609 71.707 16.8828L71.7305 0.394531C71.7305 0.332031 71.7617 0.300781 71.8242 0.300781H79.5352C79.5977 0.300781 79.6289 0.339844 79.6289 0.417969V3.10156C79.6289 3.16406 79.5977 3.19531 79.5352 3.19531H74.6133V6.94531H79.5352C79.5977 6.94531 79.6289 6.97656 79.6289 7.03906L79.6523 9.75781C79.6523 9.82031 79.6211 9.85156 79.5586 9.85156H74.6133V14.0469H79.5586C79.6211 14.0469 79.6523 14.0859 79.6523 14.1641V16.9062C79.6523 16.9688 79.6211 17 79.5586 17Z" fill="white"/>
<path d="M49.2891 17H46.582C46.5117 17 46.4766 16.9609 46.4766 16.8828V3.19531H43.3594C43.2812 3.19531 43.2422 3.15625 43.2422 3.07812L43.2656 0.394531C43.2656 0.332031 43.2969 0.300781 43.3594 0.300781H52.4766C52.5625 0.300781 52.6055 0.332031 52.6055 0.394531V3.07812C52.6055 3.15625 52.5742 3.19531 52.5117 3.19531H49.3594L49.3828 16.8828C49.3828 16.9609 49.3516 17 49.2891 17Z" fill="#FA8072"/>
</svg>
